<?xml version="1.0" encoding="utf-8"?>
<!-- Generator: Adobe Illustrator 16.0.3, SVG Export Plug-In . SVG Version: 6.00 Build 0)  -->
<!DOCTYPE svg PUBLIC "-//W3C//DTD SVG 1.1//EN" "http://www.w3.org/Graphics/SVG/1.1/DTD/svg11.dtd">
<svg version="1.1" id="Layer_1" xmlns="http://www.w3.org/2000/svg" xmlns:xlink="http://www.w3.org/1999/xlink" x="0px" y="0px"
	 width="260.427px" height="137.483px" viewBox="0 0 260.427 137.483" enable-background="new 0 0 260.427 137.483"
	 xml:space="preserve">
	<defs>
		<style type="text/css"><![CDATA[
			path {
				fill: white;
			}
		]]></style>
	</defs>
<g>
	<g>
		<path d="M21.852,93.899c6.115,0,10.533,1.938,14.65,5.629c0.545,0.484,0.545,1.211,0.061,1.695l-3.693,3.813
			c-0.424,0.485-1.029,0.485-1.512,0c-2.543-2.239-5.934-3.571-9.324-3.571c-7.748,0-13.498,6.477-13.498,14.104
			c0,7.566,5.811,13.983,13.559,13.983c3.633,0,6.721-1.393,9.264-3.45c0.482-0.424,1.148-0.363,1.512,0l3.754,3.874
			c0.484,0.424,0.363,1.21-0.061,1.635c-4.117,3.994-9.322,5.871-14.711,5.871C9.746,137.483,0,127.858,0,115.751
			S9.746,93.899,21.852,93.899z"/>
		<path d="M64.713,93.899c12.105,0,21.791,9.746,21.791,21.853s-9.686,21.731-21.791,21.731c-12.107,0-21.732-9.625-21.732-21.731
			S52.605,93.899,64.713,93.899z M64.713,129.614c7.627,0,13.922-6.234,13.922-13.862s-6.295-13.983-13.922-13.983
			s-13.863,6.355-13.863,13.983S57.086,129.614,64.713,129.614z"/>
		<path d="M95.951,95.655c0-0.605,0.543-1.15,1.148-1.15h5.631c0.666,0,1.15,0.545,1.15,1.15v16.041h19.733V95.655
			c0-0.605,0.484-1.15,1.15-1.15h5.57c0.605,0,1.15,0.545,1.15,1.15v40.072c0,0.605-0.545,1.15-1.15,1.15h-5.57
			c-0.666,0-1.15-0.545-1.15-1.15V119.02h-19.733v16.707c0,0.605-0.484,1.15-1.15,1.15H97.1c-0.605,0-1.148-0.545-1.148-1.15V95.655
			z"/>
		<path d="M162.721,93.899c12.107,0,21.793,9.746,21.793,21.853s-9.686,21.731-21.793,21.731c-12.105,0-21.73-9.625-21.73-21.731
			S150.616,93.899,162.721,93.899z M162.721,129.614c7.627,0,13.922-6.234,13.922-13.862s-6.295-13.983-13.922-13.983
			s-13.861,6.355-13.861,13.983S155.094,129.614,162.721,129.614z"/>
		<path d="M193.959,95.655c0-0.605,0.484-1.15,1.15-1.15h17.312c7.266,0,13.197,5.811,13.197,13.014
			c0,5.569-3.693,10.109-8.959,12.229l8.293,15.376c0.424,0.786,0,1.755-1.029,1.755h-6.355c-0.545,0-0.848-0.303-0.969-0.545
			l-8.051-16.041h-6.721v15.436c0,0.605-0.543,1.15-1.148,1.15h-5.569c-0.666,0-1.15-0.545-1.15-1.15V95.655z M211.755,113.815
			c3.209,0,5.994-2.785,5.994-6.176c0-3.207-2.785-5.871-5.994-5.871h-9.865v12.047H211.755z"/>
		<path d="M242.085,101.768h-9.262c-0.666,0-1.15-0.545-1.15-1.15v-4.963c0-0.605,0.484-1.15,1.15-1.15h26.453
			c0.666,0,1.15,0.545,1.15,1.15v4.963c0,0.605-0.484,1.15-1.15,1.15h-9.262v33.959c0,0.605-0.545,1.15-1.15,1.15h-5.631
			c-0.604,0-1.148-0.545-1.148-1.15V101.768z"/>
	</g>
	<g>
		<g>
			<path d="M99.929,0.391c0.547-0.545,1.391-0.494,1.887,0l32.886,32.887c0.496,0.494,0.545,1.339,0,1.885l-32.884,32.885
				c-0.547,0.546-1.391,0.496-1.887,0L67.045,35.163c-0.495-0.496-0.545-1.339,0-1.887L99.929,0.391z"/>
		</g>
		<path d="M159.562,9.633l24.589,24.588l-24.589,24.586l-24.584-24.588L159.562,9.633 M159.57,0c-0.351,0-0.694,0.137-0.948,0.391
			l-32.886,32.885c-0.498,0.496-0.546,1.339,0,1.887l32.886,32.883c0.266,0.267,0.602,0.391,0.937,0.391
			c0.349,0,0.694-0.135,0.948-0.389l32.883-32.885c0.498-0.498,0.549-1.341,0-1.887L160.506,0.391C160.239,0.124,159.904,0,159.57,0
			L159.57,0z"/>
	</g>
</g>
</svg>
