<?xml version="1.0" encoding="utf-8"?>
<!-- Generator: Adobe Illustrator 16.0.3, SVG Export Plug-In . SVG Version: 6.00 Build 0)  -->
<!DOCTYPE svg PUBLIC "-//W3C//DTD SVG 1.1//EN" "http://www.w3.org/Graphics/SVG/1.1/DTD/svg11.dtd">
<svg version="1.1" id="Layer_1" xmlns="http://www.w3.org/2000/svg" xmlns:xlink="http://www.w3.org/1999/xlink" x="0px" y="0px"
	 width="37.973px" height="37.971px" viewBox="0 0 37.973 37.971" enable-background="new 0 0 37.973 37.971" xml:space="preserve">

    <defs>
        <style type="text/css"><![CDATA[
            path,
            polygon {
                fill: white;
            }
        ]]></style>
    </defs>

<path d="M37.755,18.461L19.51,0.216C19.369,0.075,19.177,0,18.983,0c-0.186,0-0.372,0.068-0.52,0.217L0.217,18.461
	c-0.303,0.305-0.276,0.771,0,1.047l18.247,18.246c0.141,0.141,0.332,0.217,0.526,0.217c0.185,0,0.371-0.068,0.52-0.217
	l18.245-18.246C38.059,19.206,38.031,18.739,37.755,18.461z M34.839,19.427L19.428,34.838c-0.125,0.125-0.282,0.184-0.438,0.184
	c-0.165,0-0.326-0.064-0.444-0.184L3.134,19.427c-0.234-0.231-0.255-0.628,0-0.884l15.412-15.41
	c0.124-0.125,0.282-0.183,0.438-0.183c0.164,0,0.326,0.063,0.445,0.182l15.411,15.411C35.072,18.776,35.096,19.172,34.839,19.427z"
	/>
<polygon fill-rule="evenodd" clip-rule="evenodd" points="25.822,19.03 24.408,17.616 19.998,22.026 19.998,12.114 17.997,12.114
	17.997,22.047 13.566,17.616 12.151,19.03 18.987,25.858 "/>
</svg>
